<svg id="Logo" xmlns="http://www.w3.org/2000/svg" width="91" height="23" viewBox="0 0 91 23">
  <path id="Combined_Shape_Copy" data-name="Combined Shape Copy" d="M77.4,22.766a11.133,11.133,0,0,1-2.125-.67,11.267,11.267,0,0,1-1.922-1.06,11.431,11.431,0,0,1-1.675-1.4,11.525,11.525,0,0,1-2.3-3.357,11.527,11.527,0,0,1-2.3,3.357,11.443,11.443,0,0,1-1.675,1.4,11.268,11.268,0,0,1-1.923,1.06,11.171,11.171,0,0,1-8.811,0,11.268,11.268,0,0,1-1.923-1.06A11.474,11.474,0,0,1,49.7,17.93a11.563,11.563,0,0,1-.914-1.655,11.531,11.531,0,0,1-2.3,3.357,11.437,11.437,0,0,1-1.675,1.4,11.264,11.264,0,0,1-1.923,1.06,11.171,11.171,0,0,1-8.811,0,11.267,11.267,0,0,1-1.922-1.06,11.431,11.431,0,0,1-1.675-1.4,11.534,11.534,0,0,1-3.085-5.814,11.8,11.8,0,0,1,0-4.635,11.531,11.531,0,0,1,3.085-5.814,11.431,11.431,0,0,1,1.675-1.4A11.267,11.267,0,0,1,34.077.9a11.171,11.171,0,0,1,8.811,0,11.264,11.264,0,0,1,1.923,1.06A11.474,11.474,0,0,1,47.868,5.07a11.567,11.567,0,0,1,.914,1.655,11.528,11.528,0,0,1,2.3-3.357,11.437,11.437,0,0,1,1.675-1.4A11.268,11.268,0,0,1,54.676.9a11.171,11.171,0,0,1,8.811,0,11.273,11.273,0,0,1,1.923,1.06A11.474,11.474,0,0,1,68.467,5.07a11.563,11.563,0,0,1,.914,1.655,11.525,11.525,0,0,1,2.3-3.357,11.431,11.431,0,0,1,1.675-1.4A11.267,11.267,0,0,1,75.276.9a11.171,11.171,0,0,1,8.811,0,11.264,11.264,0,0,1,1.923,1.06A11.474,11.474,0,0,1,89.067,5.07a11.532,11.532,0,0,1,1.7,4.112,11.793,11.793,0,0,1,0,4.635,11.532,11.532,0,0,1-3.085,5.814,11.437,11.437,0,0,1-1.675,1.4,11.264,11.264,0,0,1-1.923,1.06,11.211,11.211,0,0,1-6.687.67ZM76.113,2.975a9.115,9.115,0,0,0-1.557.859,9.292,9.292,0,0,0-2.476,2.516A9.4,9.4,0,0,0,73.2,18.144a9.266,9.266,0,0,0,1.357,1.137,9.115,9.115,0,0,0,1.557.859,9.064,9.064,0,0,0,7.137,0,9.12,9.12,0,0,0,1.557-.859,9.259,9.259,0,0,0,1.357-1.137,9.4,9.4,0,0,0,0-13.173,9.259,9.259,0,0,0-1.357-1.137,9.12,9.12,0,0,0-1.557-.859,9.064,9.064,0,0,0-7.137,0Zm-20.6,0a9.12,9.12,0,0,0-1.557.859A9.259,9.259,0,0,0,52.6,4.971a9.4,9.4,0,0,0,0,13.173,9.259,9.259,0,0,0,1.357,1.137,9.12,9.12,0,0,0,1.557.859,9.064,9.064,0,0,0,7.137,0,9.115,9.115,0,0,0,1.557-.859,9.3,9.3,0,0,0,2.476-2.516,9.4,9.4,0,0,0-1.12-11.795,9.259,9.259,0,0,0-1.357-1.137,9.119,9.119,0,0,0-1.557-.859,9.064,9.064,0,0,0-7.137,0Zm-20.6,0a9.115,9.115,0,0,0-1.557.859A9.292,9.292,0,0,0,30.88,6.349,9.4,9.4,0,0,0,32,18.144a9.266,9.266,0,0,0,1.357,1.137,9.115,9.115,0,0,0,1.557.859,9.064,9.064,0,0,0,7.137,0,9.12,9.12,0,0,0,1.557-.859,9.259,9.259,0,0,0,1.357-1.137A9.379,9.379,0,0,0,43.608,3.833a9.12,9.12,0,0,0-1.557-.859,9.064,9.064,0,0,0-7.137,0ZM0,22.54V.46H14.6v2.3H2.264v7.59H14.6v2.3H2.264v9.89Zm22.75,0V2.76H17.883V.46h7.131V22.54Z" fill="#fff"/>
</svg>
